PathFileType	4	(X/Y/Z)	/Users/itak/Documents/Research/Walk-IL/dataset/trc/00045_00004.trc
DataRate	CameraRate	NumFrames	NumMarkers	Units	OrigDataRate	OrigDataStartFrame	OrigNumFrames
100.000000	100.000000	4	53	mm	100.000000	470	538
Frame#	Time	RPSI			LPSI			L3			STRN			T10			C7			CLAV			RBAK			LBAK			LSHO			LUPA			LAEL			LAOL			LWTS			LWPS			LFRA			LIFD			LHPS			LHTS			RSHO			RUPA			RAEL			RAOL			RWTS			RWPS			RFRA			RIFD			RHTS			RHPS			RBHD			LFHD			RFHD			LBHD			LHIP			RHIP			RASI			LASI			LKNE			LTHI			LANK			LTIP			LTOE			LMT1			LMT5			LHEE			RKNE			RTHI			RANK			RTIP			RTOE			RMT1			RMT5			RHEE			
		X1	Y1	Z1	X2	Y2	Z2	X3	Y3	Z3	X4	Y4	Z4	X5	Y5	Z5	X6	Y6	Z6	X7	Y7	Z7	X8	Y8	Z8	X9	Y9	Z9	X10	Y10	Z10	X11	Y11	Z11	X12	Y12	Z12	X13	Y13	Z13	X14	Y14	Z14	X15	Y15	Z15	X16	Y16	Z16	X17	Y17	Z17	X18	Y18	Z18	X19	Y19	Z19	X20	Y20	Z20	X21	Y21	Z21	X22	Y22	Z22	X23	Y23	Z23	X24	Y24	Z24	X25	Y25	Z25	X26	Y26	Z26	X27	Y27	Z27	X28	Y28	Z28	X29	Y29	Z29	X30	Y30	Z30	X31	Y31	Z31	X32	Y32	Z32	X33	Y33	Z33	X34	Y34	Z34	X35	Y35	Z35	X36	Y36	Z36	X37	Y37	Z37	X38	Y38	Z38	X39	Y39	Z39	X40	Y40	Z40	X41	Y41	Z41	X42	Y42	Z42	X43	Y43	Z43	X44	Y44	Z44	X45	Y45	Z45	X46	Y46	Z46	X47	Y47	Z47	X48	Y48	Z48	X49	Y49	Z49	X50	Y50	Z50	X51	Y51	Z51	X52	Y52	Z52	X53	Y53	Z53	

471	4.7	97.40003204345703	1073.505004882812	1003.632446289062	257.6211547851562	1065.639892578125	969.857177734375	186.4553070068359	1121.6806640625	977.679443359375	214.5618133544922	1329.408325195312	1187.782836914062	191.0340423583984	1263.623046875	942.4822998046875	211.4515075683594	1533.855834960938	973.2756958007812	216.2669067382812	1453.351806640625	1138.612548828125	124.8992691040039	1394.818969726562	936.9501953125	306.4247436523438	1489.603637695312	950.8681640625	388.0191955566406	1502.839599609375	1046.168090820312	460.7476196289062	1373.374389648438	1019.1474609375	481.1177368164062	1155.1005859375	1035.518676757812	386.6299743652344	1140.370361328125	988.0187377929688	426.4410095214844	918.4175415039062	1158.958129882812	461.44677734375	892.1168212890625	1081.477783203125	484.9283447265625	1041.26416015625	1061.120727539062	398.6698303222656	740.0628662109375	1209.698364257812	459.2086486816406	807.374755859375	1126.651611328125	436.1055908203125	827.4295043945312	1190.890747070312	40.80904388427734	1525.812133789062	1063.889892578125	-31.30555534362793	1456.5146484375	1058.541381835938	-61.98906707763672	1188.679931640625	1034.07958984375	34.11905288696289	1159.458740234375	1030.768920898438	-33.59544372558594	927.4808959960938	1158.541259765625	-101.6111373901367	915.6343383789062	1097.118774414062	-78.52534484863281	1114.14501953125	1047.477661132812	-19.46165466308594	742.054931640625	1170.186401367188	-48.16323471069336	818.0932006835938	1189.885864257812	-101.2401351928711	813.837890625	1137.237915039062	283.5664367675781	1717.476684570312	1010.929809570312	162.1100158691406	1750.915649414062	1189.154296875	260.1826782226562	1750.523315429688	1187.880737304688	139.4325256347656	1716.044921875	1019.337158203125	383.7542114257812	964.6173095703125	1047.131469726562	19.37628936767578	960.4044799804688	1135.8779296875	110.6597747802734	999.3456420898438	1220.579711914062	339.9175109863281	1015.7705078125	1171.972900390625	352.6868896484375	521.404541015625	1123.983154296875	383.1929626464844	657.844482421875	1087.280517578125	355.9579772949219	38.96585083007812	1052.682495117188	368.6513061523438	288.9291381835938	1055.76953125	303.0843811035156	39.92304992675781	1276.366333007812	284.2064514160156	48.97436141967773	1217.385009765625	383.625732421875	38.9645881652832	1175.3037109375	300.614990234375	43.7647590637207	986.357177734375	83.74301910400391	523.8031616210938	1140.212890625	33.69015121459961	791.0801391601562	1159.352294921875	102.6851501464844	43.74106979370117	1029.2919921875	85.39011383056641	400.2672729492188	1116.485961914062	184.6882629394531	43.93801879882812	1249.976684570312	202.7845916748047	49.62012481689453	1182.78466796875	105.7044067382812	41.66839218139648	1179.688842773438	136.6015930175781	46.07166290283203	967.3594970703125	
472	4.71	98.78078460693359	1073.513061523438	1005.090881347656	259.0849609375	1065.4873046875	971.595703125	187.888427734375	1121.410766601562	979.338623046875	215.5033111572266	1329.358642578125	1189.071044921875	192.3819580078125	1263.318603515625	943.8607788085938	212.4537353515625	1533.610107421875	974.3079223632812	217.1547393798828	1453.2646484375	1139.76220703125	126.0865707397461	1394.49853515625	937.9119262695312	307.5139770507812	1489.3427734375	952.0563354492188	389.0064697265625	1502.74853515625	1047.416015625	461.8526000976562	1373.282348632812	1020.635620117188	482.3616027832031	1155.015625	1037.439208984375	387.9737854003906	1140.189331054688	989.6408081054688	427.5243225097656	918.5089721679688	1161.176879882812	462.7609558105469	892.1069946289062	1083.81640625	486.1742553710938	1041.231689453125	1063.249877929688	399.8341979980469	740.2021484375	1212.2041015625	460.5213012695312	807.4542846679688	1129.155029296875	437.3321838378906	827.6318969726562	1193.299682617188	41.74428939819336	1525.508544921875	1064.74560546875	-30.31930351257324	1456.130249023438	1059.344116210938	-60.87390518188477	1188.411254882812	1034.638671875	35.28071975708008	1159.21142578125	1031.42529296875	-33.11583709716797	926.3401489257812	1157.447509765625	-101.0970993041992	915.200439453125	1095.76708984375	-77.47772216796875	1113.975952148438	1047.667236328125	-19.46364212036133	740.7490234375	1167.291015625	-47.96464538574219	816.6968383789062	1187.704711914062	-101.0075454711914	813.0555419921875	1134.972045898438	284.5190734863281	1717.235229492188	1011.653198242188	163.0538330078125	1751.040893554688	1189.820556640625	261.1124572753906	1750.548828125	1188.555297851562	140.4070281982422	1715.880249023438	1020.017700195312	384.9852600097656	964.3887939453125	1049.124877929688	20.54698753356934	960.5028686523438	1137.253295898438	111.7559280395508	999.3317260742188	1222.132080078125	340.9910888671875	1015.521728515625	1173.877563476562	353.3084411621094	520.8261108398438	1123.960327148438	384.0401611328125	657.5203247070312	1087.835571289062	355.9457397460938	38.88439178466797	1052.639770507812	369.0587158203125	288.7739562988281	1055.579467773438	303.0740356445312	39.89610290527344	1276.37255859375	284.2129211425781	48.95102310180664	1217.396484375	383.6502075195312	38.8963623046875	1175.305541992188	300.6883239746094	43.66496658325195	986.32470703125	84.29558563232422	523.760498046875	1140.61962890625	34.50626754760742	791.0891723632812	1160.305297851562	102.7493667602539	43.85441589355469	1029.287719726562	85.84426116943359	400.3245544433594	1116.703857421875	184.6900024414062	43.94031524658203	1249.989868164062	202.8171997070312	49.59610366821289	1182.784301757812	105.7407608032227	41.67330932617188	1179.689819335938	136.6581573486328	46.17356109619141	967.356689453125	
473	4.72	100.107307434082	1073.538818359375	1006.497497558594	260.505126953125	1065.356811523438	973.2688598632812	189.2801361083984	1121.169677734375	980.9359130859375	216.4340209960938	1329.307861328125	1190.3173828125	193.6903533935547	1263.034057617188	945.1805419921875	213.4219665527344	1533.388061523438	975.3200073242188	218.0330810546875	1453.177001953125	1140.878051757812	127.2387619018555	1394.201538085938	938.8344116210938	308.5663757324219	1489.11083984375	953.2074584960938	389.9708862304688	1502.691772460938	1048.623779296875	462.9300231933594	1373.228881835938	1022.068603515625	483.5760803222656	1154.972290039062	1039.277221679688	389.2778930664062	1140.037231445312	991.2645263671875	428.6562194824219	918.5979614257812	1163.273559570312	464.0865783691406	892.1209716796875	1086.003051757812	487.4093017578125	1041.23583984375	1065.266479492188	401.135498046875	740.3271484375	1214.549926757812	461.8802185058594	807.543701171875	1131.482421875	438.6235046386719	827.826904296875	1195.5556640625	42.66029357910156	1525.206909179688	1065.595703125	-29.35433387756348	1455.748046875	1060.140869140625	-59.76934051513672	1188.147338867188	1035.190551757812	36.4296760559082	1158.972412109375	1032.07373046875	-32.60086441040039	925.2830200195312	1156.516723632812	-100.5419540405273	914.7998046875	1094.583740234375	-76.44142913818359	1113.793334960938	1047.885620117188	-19.40630912780762	739.5637817382812	1164.703369140625	-47.68122100830078	815.41943359375	1185.783447265625	-100.7344055175781	812.3482055664062	1132.955078125	285.4442138671875	1717.009399414062	1012.366271972656	163.9886169433594	1751.176391601562	1190.499267578125	262.0382385253906	1750.571533203125	1189.2392578125	141.3423614501953	1715.73486328125	1020.713134765625	386.1859741210938	964.1756591796875	1051.022338867188	21.7166919708252	960.5728759765625	1138.565185546875	112.8719024658203	999.3155517578125	1223.628540039062	342.0371704101562	1015.284301757812	1175.7060546875	353.9146118164062	520.3644409179688	1124.013671875	384.8869323730469	657.2318725585938	1088.406982421875	355.9301452636719	38.79925155639648	1052.593017578125	369.4884948730469	288.6444702148438	1055.457885742188	303.0654907226562	39.87255477905273	1276.374755859375	284.2255554199219	48.93081665039062	1217.40576171875	383.6734924316406	38.83540344238281	1175.307495117188	300.7562255859375	43.57752227783203	986.2958984375	84.85079193115234	523.7279052734375	1140.977661132812	35.30835342407227	791.0997924804688	1161.179809570312	102.8099365234375	43.97349166870117	1029.28271484375	86.29105377197266	400.3956604003906	1116.888671875	184.6943054199219	43.94332885742188	1250.0048828125	202.8398590087891	49.56926345825195	1182.781982421875	105.7799453735352	41.6793098449707	1179.692260742188	136.7271881103516	46.26152801513672	967.3580932617188	
474	4.73	101.3779144287109	1073.57763671875	1007.853271484375	261.8758850097656	1065.252319335938	974.8744506835938	190.6245422363281	1120.95947265625	982.4696044921875	217.3520660400391	1329.26416015625	1191.52197265625	194.9529724121094	1262.776000976562	946.4465942382812	214.3609466552734	1533.191162109375	976.311767578125	218.9026489257812	1453.096435546875	1141.958984375	128.3583984375	1393.927001953125	939.7314453125	309.5830688476562	1488.914916992188	954.3250732421875	390.9106750488281	1502.677368164062	1049.796020507812	463.9846496582031	1373.225219726562	1023.455932617188	484.7596435546875	1154.981567382812	1041.040405273438	390.5403442382812	1139.929565429688	992.8914794921875	429.8424072265625	918.6904296875	1165.24267578125	465.4247436523438	892.1680908203125	1088.0322265625	488.6315307617188	1041.285400390625	1067.174560546875	402.5650329589844	740.4490356445312	1216.722900390625	463.2786254882812	807.6476440429688	1133.623779296875	439.9664001464844	828.0132446289062	1197.649291992188	43.55553817749023	1524.916381835938	1066.436401367188	-28.40825653076172	1455.38623046875	1060.925537109375	-58.66464233398438	1187.897216796875	1035.732788085938	37.57653427124023	1158.759521484375	1032.719848632812	-32.05596923828125	924.3282470703125	1155.745971679688	-99.93785858154297	914.4376220703125	1093.5703125	-75.40864562988281	1113.606079101562	1048.128051757812	-19.28582191467285	738.5003051757812	1162.447509765625	-47.33108520507812	814.2595825195312	1184.125122070312	-100.4216537475586	811.7220458984375	1131.184692382812	286.3402404785156	1716.80908203125	1013.069885253906	164.9108276367188	1751.316162109375	1191.190185546875	262.9577331542969	1750.600219726562	1189.931762695312	142.2341003417969	1715.617553710938	1021.42578125	387.3532104492188	963.986572265625	1052.8232421875	22.8815860748291	960.621337890625	1139.821899414062	113.9934005737305	999.3037719726562	1225.073120117188	343.0623474121094	1015.069213867188	1177.452392578125	354.5059509277344	520.014404296875	1124.146606445312	385.7192077636719	656.9837646484375	1089.001220703125	355.9140319824219	38.71194458007812	1052.545532226562	369.9169921875	288.5364685058594	1055.405517578125	303.0598449707031	39.85213470458984	1276.373779296875	284.2427978515625	48.91526031494141	1217.412231445312	383.6961059570312	38.78305435180664	1175.308715820312	300.8169860839844	43.50347900390625	986.2727661132812	85.41355133056641	523.7103271484375	1141.293823242188	36.11456680297852	791.1160888671875	1161.995361328125	102.865348815918	44.09537124633789	1029.277954101562	86.736083984375	400.4805297851562	1117.046508789062	184.7017822265625	43.94701766967773	1250.021240234375	202.8538513183594	49.54673767089844	1182.778564453125	105.8219299316406	41.68725204467773	1179.696166992188	136.8052978515625	46.33677291870117	967.3630981445312	
